<?xml version="1.0" encoding="UTF-8" standalone="no"?><!DOCTYPE svg PUBLIC "-//W3C//DTD SVG 1.1//EN" "http://www.w3.org/Graphics/SVG/1.1/DTD/svg11.dtd"><svg width="100%" height="100%" viewBox="0 0 800 800" version="1.1" xmlns="http://www.w3.org/2000/svg" xmlns:xlink="http://www.w3.org/1999/xlink" xml:space="preserve" xmlns:serif="http://www.serif.com/" style="fill-rule:evenodd;clip-rule:evenodd;stroke-linejoin:round;stroke-miterlimit:2;"><path d="M171.667,153.333c22.253,-22.253 8.889,-75.833 33.333,-88.333c24.444,-12.5 80.833,22.604 113.333,13.333c32.5,-9.27 53.056,-69.236 81.667,-68.958c28.611,0.278 57.5,61.91 90,70.625c32.5,8.715 81.111,-30.556 105,-18.333c23.889,12.222 16.389,68.889 38.333,91.666c21.945,22.778 79.167,19.445 93.334,45c14.166,25.556 -18.993,74.723 -8.334,108.334c10.66,33.611 71.459,65 72.292,93.333c0.833,28.333 -58.576,45.556 -67.292,76.667c-8.715,31.111 27.778,85.277 15,110c-12.777,24.722 -67.84,15.328 -91.666,38.333c-24.167,23.333 -26.945,85.833 -53.334,101.667c-26.389,15.833 -72.777,-17.327 -105,-6.667c-32.222,10.66 -60.277,70.903 -88.333,70.625c-28.056,-0.278 -46.944,-61.632 -80,-72.292c-33.056,-10.659 -93.056,24.167 -118.333,8.334c-25.278,-15.834 -11.111,-79.723 -33.334,-103.334c-22.222,-23.611 -86.111,-15.555 -100,-38.333c-13.889,-22.778 26.493,-67.5 16.667,-98.333c-9.826,-30.834 -75.347,-57.778 -75.625,-86.667c-0.278,-28.889 64.965,-54.444 73.958,-86.667c8.993,-32.222 -34.722,-80 -20,-106.666c14.723,-26.667 84.723,-29.723 108.334,-53.334Z" style="fill:#ffd800;"/><circle cx="400" cy="400" r="246.667" style="fill:#ffe03a;"/></svg>